<svg width="30" height="30" viewBox="0 0 30 30" fill="none" xmlns="http://www.w3.org/2000/svg">
<path d="M20.625 10.7874C20.1125 10.7874 19.6875 10.3624 19.6875 9.84989V8.12489C19.6875 6.81239 19.125 5.53739 18.15 4.64989C17.1625 3.74989 15.8875 3.33739 14.5375 3.46239C12.2875 3.67489 10.3125 5.97489 10.3125 8.37489V9.58739C10.3125 10.0999 9.8875 10.5249 9.375 10.5249C8.8625 10.5249 8.4375 10.0999 8.4375 9.58739V8.36239C8.4375 4.99989 11.15 1.89989 14.3625 1.58739C16.2375 1.41239 18.0375 1.99989 19.4125 3.26239C20.775 4.49989 21.5625 6.27489 21.5625 8.12489V9.84989C21.5625 10.3624 21.1375 10.7874 20.625 10.7874Z" fill="white"/>
<path d="M18.7498 28.4375H11.2498C5.47477 28.4375 4.39977 25.75 4.12477 23.1375L3.18727 15.65C3.04977 14.3 2.99977 12.3625 4.31227 10.9125C5.43727 9.6625 7.29977 9.0625 9.99977 9.0625H19.9998C22.7123 9.0625 24.5748 9.675 25.6873 10.9125C26.9873 12.3625 26.9498 14.3 26.8123 15.625L25.8748 23.1375C25.5998 25.75 24.5248 28.4375 18.7498 28.4375ZM9.99977 10.9375C7.88727 10.9375 6.43727 11.35 5.69977 12.175C5.08727 12.85 4.88727 13.8875 5.04977 15.4375L5.98727 22.925C6.19977 24.925 6.74977 26.575 11.2498 26.575H18.7498C23.2498 26.575 23.7998 24.9375 24.0123 22.95L24.9498 15.4375C25.1123 13.9125 24.9123 12.875 24.2998 12.1875C23.5623 11.35 22.1123 10.9375 19.9998 10.9375H9.99977Z" fill="white"/>
<path d="M19.2752 16.4375C18.5752 16.4375 18.0127 15.875 18.0127 15.1875C18.0127 14.5 18.5752 13.9375 19.2627 13.9375C19.9502 13.9375 20.5127 14.5 20.5127 15.1875C20.5127 15.875 19.9627 16.4375 19.2752 16.4375Z" fill="white"/>
<path d="M10.5252 16.4375C9.8252 16.4375 9.2627 15.875 9.2627 15.1875C9.2627 14.5 9.8252 13.9375 10.5127 13.9375C11.2002 13.9375 11.7627 14.5 11.7627 15.1875C11.7627 15.875 11.2127 16.4375 10.5252 16.4375Z" fill="white"/>
</svg>
