<svg width="30" height="30" viewBox="0 0 30 30" fill="none" xmlns="http://www.w3.org/2000/svg">
<path d="M20.6606 10.7875C20.15 10.7875 19.7266 10.3625 19.7266 9.85001V8.12501C19.7266 6.81251 19.1663 5.53751 18.195 4.65001C17.2112 3.75001 15.941 3.33751 14.5962 3.46251C12.3547 3.67501 10.3872 5.97501 10.3872 8.37501V9.58751C10.3872 10.1 9.96379 10.525 9.45323 10.525C8.94268 10.525 8.51929 10.1 8.51929 9.58751V8.36251C8.51929 5.00001 11.2215 1.90001 14.4218 1.58751C16.2897 1.41251 18.0829 2.00001 19.4527 3.26251C20.81 4.50001 21.5945 6.27501 21.5945 8.12501V9.85001C21.5945 10.3625 21.1711 10.7875 20.6606 10.7875Z" fill="black"/>
<path d="M18.7926 28.4375H11.321C5.5679 28.4375 4.49697 25.75 4.22302 23.1375L3.28907 15.65C3.15209 14.3 3.10228 12.3625 4.4098 10.9125C5.53054 9.6625 7.38598 9.0625 10.0757 9.0625H20.0378C22.7401 9.0625 24.5955 9.675 25.7038 10.9125C26.9989 12.3625 26.9615 14.3 26.8245 15.625L25.8906 23.1375C25.6166 25.75 24.5457 28.4375 18.7926 28.4375ZM10.0757 10.9375C7.97125 10.9375 6.52675 11.35 5.79205 12.175C5.18187 12.85 4.98262 13.8875 5.14451 15.4375L6.07846 22.925C6.29015 24.925 6.83806 26.575 11.321 26.575H18.7926C23.2755 26.575 23.8234 24.9375 24.0351 22.95L24.9691 15.4375C25.131 13.9125 24.9317 12.875 24.3215 12.1875C23.5868 11.35 22.1423 10.9375 20.0378 10.9375H10.0757Z" fill="black"/>
<path d="M19.3158 16.4375C18.6185 16.4375 18.0581 15.875 18.0581 15.1875C18.0581 14.5 18.6185 13.9375 19.3034 13.9375C19.9883 13.9375 20.5486 14.5 20.5486 15.1875C20.5486 15.875 20.0007 16.4375 19.3158 16.4375Z" fill="black"/>
<path d="M10.5988 16.4375C9.90143 16.4375 9.34106 15.875 9.34106 15.1875C9.34106 14.5 9.90143 13.9375 10.5863 13.9375C11.2712 13.9375 11.8316 14.5 11.8316 15.1875C11.8316 15.875 11.2837 16.4375 10.5988 16.4375Z" fill="black"/>
</svg>
