<svg width="31" height="30" viewBox="0 0 31 30" fill="none" xmlns="http://www.w3.org/2000/svg">
<path d="M15.2845 27.0625C14.8985 27.0625 14.5249 27.0125 14.2136 26.9C9.45669 25.2625 1.89795 19.45 1.89795 10.8625C1.89795 6.4875 5.42204 2.9375 9.75555 2.9375C11.86 2.9375 13.8276 3.7625 15.2845 5.2375C16.7415 3.7625 18.709 2.9375 20.8135 2.9375C25.147 2.9375 28.6711 6.5 28.6711 10.8625C28.6711 19.4625 21.1123 25.2625 16.3554 26.9C16.0441 27.0125 15.6705 27.0625 15.2845 27.0625ZM9.75555 4.8125C6.45561 4.8125 3.76584 7.525 3.76584 10.8625C3.76584 19.4 11.9472 24.15 14.8238 25.1375C15.0479 25.2125 15.5336 25.2125 15.7577 25.1375C18.6218 24.15 26.8156 19.4125 26.8156 10.8625C26.8156 7.525 24.1259 4.8125 20.8259 4.8125C18.9331 4.8125 17.1773 5.7 16.0441 7.2375C15.6954 7.7125 14.8985 7.7125 14.5498 7.2375C13.3917 5.6875 11.6483 4.8125 9.75555 4.8125Z" fill="black"/>
</svg>
