<svg width="28" height="28" viewBox="0 0 28 28" fill="none" xmlns="http://www.w3.org/2000/svg">
<path fill-rule="evenodd" clip-rule="evenodd" d="M12.1345 0H15.3641C17.6676 0.00521325 18.1965 0.0255002 19.4187 0.0812666C20.8823 0.148023 21.8819 0.380495 22.7566 0.720442C23.6608 1.0718 24.4276 1.54198 25.1921 2.30643C25.9566 3.07093 26.4268 3.83778 26.7782 4.74201C27.1181 5.61666 27.3505 6.61625 27.4173 8.07986C27.482 9.49764 27.4989 9.98247 27.5 13.3866V14.112C27.4989 17.5161 27.482 18.0009 27.4173 19.4187C27.3505 20.8823 27.1181 21.8819 26.7782 22.7566C26.4268 23.6608 25.9566 24.4276 25.1921 25.1921C24.4276 25.9566 23.6608 26.4268 22.7566 26.7782C21.8819 27.1181 20.8823 27.3505 19.4187 27.4173C18.0009 27.482 17.5161 27.4989 14.112 27.5H13.3866C9.98247 27.4989 9.49764 27.482 8.07986 27.4173C6.61625 27.3505 5.61666 27.1181 4.74201 26.7782C3.83778 26.4268 3.07093 25.9566 2.30643 25.1921C1.54198 24.4276 1.0718 23.6608 0.720442 22.7566C0.380495 21.8819 0.148023 20.8823 0.0812666 19.4187C0.0255002 18.1965 0.00521325 17.6676 0 15.3641V12.1345C0.00521325 9.83098 0.0255002 9.30208 0.0812666 8.07986C0.148023 6.61625 0.380495 5.61666 0.720442 4.74201C1.0718 3.83778 1.54198 3.07093 2.30643 2.30643C3.07093 1.54198 3.83778 1.0718 4.74201 0.720442C5.61666 0.380495 6.61625 0.148023 8.07986 0.0812666C9.30208 0.0255002 9.83098 0.00521325 12.1345 0H15.3641H12.1345ZM14.7579 2.47659H12.7407C9.98055 2.47946 9.49776 2.49677 8.1928 2.55631C6.85211 2.61745 6.12402 2.84146 5.63948 3.02977C4.99763 3.27922 4.53956 3.57719 4.0584 4.0584C3.57719 4.53956 3.27922 4.99763 3.02977 5.63948C2.84146 6.12402 2.61745 6.85211 2.55631 8.1928C2.49677 9.49776 2.47946 9.98055 2.47659 12.7407V14.7579C2.47946 17.518 2.49677 18.0008 2.55631 19.3058C2.61745 20.6465 2.84146 21.3746 3.02977 21.8591C3.27922 22.5009 3.57725 22.959 4.0584 23.4402C4.53956 23.9214 4.99763 24.2194 5.63948 24.4688C6.12402 24.6571 6.85211 24.8811 8.1928 24.9423C9.6426 25.0084 10.0774 25.0224 13.7493 25.0224C17.4212 25.0224 17.856 25.0084 19.3058 24.9423C20.6465 24.8811 21.3746 24.6571 21.8591 24.4688C22.5009 24.2194 22.959 23.9214 23.4402 23.4402C23.9214 22.959 24.2194 22.5009 24.4688 21.8591C24.6571 21.3746 24.8811 20.6465 24.9423 19.3058C25.0084 17.8558 25.0224 17.4209 25.0224 13.7493C25.0224 10.0777 25.0084 9.64276 24.9423 8.1928C24.8811 6.85211 24.6571 6.12402 24.4688 5.63948C24.2194 4.99763 23.9214 4.53956 23.4402 4.0584C22.959 3.57719 22.5009 3.27922 21.8591 3.02977C21.3746 2.84146 20.6465 2.61745 19.3058 2.55631C18.0008 2.49677 17.518 2.47946 14.7579 2.47659ZM13.7493 6.8739C17.5465 6.8739 20.6247 9.95209 20.6247 13.7493C20.6247 17.5465 17.5465 20.6247 13.7493 20.6247C9.95209 20.6247 6.8739 17.5465 6.8739 13.7493C6.8739 9.95209 9.95209 6.8739 13.7493 6.8739ZM13.7493 9.28631C11.2844 9.28631 9.28631 11.2844 9.28631 13.7493C9.28631 16.2141 11.2844 18.2123 13.7493 18.2123C16.2141 18.2123 18.2123 16.2141 18.2123 13.7493C18.2123 11.2844 16.2141 9.28631 13.7493 9.28631ZM21.1976 4.58211C22.1469 4.58211 22.9165 5.35168 22.9165 6.30098C22.9165 7.25028 22.1469 8.0198 21.1976 8.0198C20.2483 8.0198 19.4788 7.25028 19.4788 6.30098C19.4788 5.35168 20.2483 4.58211 21.1976 4.58211Z" fill="black"/>
</svg>
