<svg width="30" height="30" viewBox="0 0 30 30" fill="none" xmlns="http://www.w3.org/2000/svg">
<path fill-rule="evenodd" clip-rule="evenodd" d="M11.9434 12.2901C12.2911 12.0582 12.5 11.6679 12.5 11.25V6.25C12.5 4.17893 10.8211 2.5 8.75 2.5H3.75C3.05964 2.5 2.5 3.05964 2.5 3.75C2.5 16.1764 13.8236 27.5 26.25 27.5C26.9404 27.5 27.5 26.9404 27.5 26.25V21.25C27.5 19.1789 25.8211 17.5 23.75 17.5H18.75C18.3321 17.5 17.9418 17.7089 17.7099 18.0566L15.3283 21.6291C12.7342 19.9519 10.4616 17.7365 8.71343 15.1862L8.37085 14.6717L11.9434 12.2901ZM19.419 20H23.75C24.4404 20 25 20.5596 25 21.25V24.9567C22.5784 24.7891 20.2152 24.1414 18.0109 23.1145L17.5051 22.8708L19.419 20ZM5.04334 5H8.75C9.44036 5 10 5.55964 10 6.25V10.581L7.12922 12.4949C5.96103 10.1481 5.22379 7.60783 5.04334 5Z" fill="black"/>
</svg>
