<svg width="31" height="30" viewBox="0 0 31 30" fill="none" xmlns="http://www.w3.org/2000/svg">
<path d="M15.7105 14.525C15.6731 14.525 15.6482 14.525 15.6109 14.525C15.5486 14.5125 15.4614 14.5125 15.3867 14.525C11.7755 14.4125 9.04834 11.5625 9.04834 8.05C9.04834 4.475 11.9498 1.5625 15.5112 1.5625C19.0727 1.5625 21.9742 4.475 21.9742 8.05C21.9617 11.5625 19.2221 14.4125 15.7478 14.525C15.7354 14.525 15.7229 14.525 15.7105 14.525ZM15.5112 3.4375C12.9834 3.4375 10.9162 5.5125 10.9162 8.05C10.9162 10.55 12.8588 12.5625 15.3369 12.65C15.3992 12.6375 15.5735 12.6375 15.7354 12.65C18.1761 12.5375 20.0938 10.525 20.1063 8.05C20.1063 5.5125 18.0391 3.4375 15.5112 3.4375Z" fill="black"/>
<path d="M15.723 28.1875C13.2823 28.1875 10.8291 27.5625 8.9737 26.3125C7.24279 25.1625 6.29639 23.5875 6.29639 21.875C6.29639 20.1625 7.24279 18.575 8.9737 17.4125C12.7095 14.925 18.7615 14.925 22.4723 17.4125C24.1908 18.5625 25.1496 20.1375 25.1496 21.85C25.1496 23.5625 24.2032 25.15 22.4723 26.3125C20.6044 27.5625 18.1637 28.1875 15.723 28.1875ZM10.0073 18.9875C8.81182 19.7875 8.16428 20.8125 8.16428 21.8875C8.16428 22.95 8.82427 23.975 10.0073 24.7625C13.108 26.85 18.3381 26.85 21.4388 24.7625C22.6342 23.9625 23.2818 22.9375 23.2818 21.8625C23.2818 20.8 22.6218 19.775 21.4388 18.9875C18.3381 16.9125 13.108 16.9125 10.0073 18.9875Z" fill="black"/>
</svg>
