<svg width="30" height="30" viewBox="0 0 30 30" fill="none" xmlns="http://www.w3.org/2000/svg">
<path d="M24.9053 7.1875H17.4337C16.9231 7.1875 16.4998 6.7625 16.4998 6.25C16.4998 5.7375 16.9231 5.3125 17.4337 5.3125H24.9053C25.4158 5.3125 25.8392 5.7375 25.8392 6.25C25.8392 6.7625 25.4158 7.1875 24.9053 7.1875Z" fill="black"/>
<path d="M21.1695 10.9375H17.4337C16.9231 10.9375 16.4998 10.5125 16.4998 10C16.4998 9.4875 16.9231 9.0625 17.4337 9.0625H21.1695C21.68 9.0625 22.1034 9.4875 22.1034 10C22.1034 10.5125 21.68 10.9375 21.1695 10.9375Z" fill="black"/>
<path d="M14.3204 27.1875C7.28472 27.1875 1.55652 21.4375 1.55652 14.375C1.55652 7.3125 7.28472 1.5625 14.3204 1.5625C14.831 1.5625 15.2544 1.9875 15.2544 2.5C15.2544 3.0125 14.831 3.4375 14.3204 3.4375C8.30584 3.4375 3.42441 8.35 3.42441 14.375C3.42441 20.4 8.30584 25.3125 14.3204 25.3125C20.3351 25.3125 25.2165 20.4 25.2165 14.375C25.2165 13.8625 25.6399 13.4375 26.1504 13.4375C26.661 13.4375 27.0844 13.8625 27.0844 14.375C27.0844 21.4375 21.3562 27.1875 14.3204 27.1875Z" fill="black"/>
<path d="M27.3957 28.4375C27.1591 28.4375 26.9225 28.35 26.7357 28.1625L24.2452 25.6625C23.8841 25.3 23.8841 24.7 24.2452 24.3375C24.6063 23.975 25.2041 23.975 25.5652 24.3375L28.0557 26.8375C28.4168 27.2 28.4168 27.8 28.0557 28.1625C27.8689 28.35 27.6323 28.4375 27.3957 28.4375Z" fill="black"/>
</svg>
